# xmcd
#
# Track frame offsets: 
#        225
#        21345
#        57965
#        78760
#        100369
#        124461
#        153749
#        183468
#
# Disc length: 2718 seconds
#
# Revision: 0
# Processed by: cddbd v1.5.2PL0 Copyright (c) Steve Scherf et al.
# Submitted via: ExactAudioCopyFreeDBPlugin 1.0
#
DISCID=6a0a9b08
DTITLE=Billy Paul - Billy Paul - 360 Degrees of Billy Paul and War of th
DTITLE=e Gods [SACD Hybrid Multi-channel] LIMITED EDITION  CD 1
DYEAR=1972
DGENRE=Jazz+Funk
TTITLE0=Brown Baby
TTITLE1=I'm Just a Prisoner
TTITLE2=It's Too Late
TTITLE3=Me and Mrs. Jones
TTITLE4=Am I Black Enough for You?
TTITLE5=Let's Stay Together
TTITLE6=Your Song
TTITLE7=I'm Gonna Make It This Time
EXTD=
EXTT0=
EXTT1=
EXTT2=
EXTT3=
EXTT4=
EXTT5=
EXTT6=
EXTT7=
PLAYORDER=
